<svg width="36" height="36" viewBox="0 0 36 36" fill="none" xmlns="http://www.w3.org/2000/svg">
<rect width="36" height="36" rx="9" fill="url(#paint0_linear_124_733)" fill-opacity="0.35"/>
<rect x="0.642857" y="0.642857" width="34.7143" height="34.7143" rx="8.35714" stroke="url(#paint1_linear_124_733)" stroke-opacity="0.3" stroke-width="1.28571"/>
<path fill-rule="evenodd" clip-rule="evenodd" d="M21.0946 8.59731C21.0946 8.17304 21.4385 7.8291 21.8628 7.8291H24.9356C25.3599 7.8291 25.7038 8.17304 25.7038 8.59731V11.6702C25.7038 12.0944 25.3599 12.4384 24.9356 12.4384C24.5114 12.4384 24.1674 12.0944 24.1674 11.6702V10.3076L19.2707 14.6588C18.9773 14.9195 18.5346 14.9171 18.244 14.6533L16.0894 12.697L10.8428 17.244C10.5221 17.5219 10.037 17.4873 9.75911 17.1666C9.48124 16.846 9.51589 16.3609 9.83651 16.083L15.5981 11.0896C15.8919 10.835 16.3297 10.84 16.6176 11.1014L18.7659 13.0519L22.9146 9.36552H21.8628C21.4385 9.36552 21.0946 9.02158 21.0946 8.59731ZM11.1078 22.425C11.5321 22.425 11.876 22.7689 11.876 23.1932L11.876 27.8024C11.876 28.2267 11.5321 28.5706 11.1078 28.5706C10.6835 28.5706 10.3396 28.2267 10.3396 27.8024L10.3396 23.1932C10.3396 22.7689 10.6835 22.425 11.1078 22.425ZM16.4853 20.1203C16.4853 19.696 16.1414 19.3521 15.7171 19.3521C15.2928 19.3521 14.9489 19.696 14.9489 20.1203L14.9489 27.8024C14.9489 28.2267 15.2928 28.5706 15.7171 28.5706C16.1414 28.5706 16.4853 28.2267 16.4853 27.8024V20.1203ZM20.3264 17.0468C20.7507 17.0468 21.0946 17.3907 21.0946 17.815V27.8017C21.0946 28.226 20.7507 28.5699 20.3264 28.5699C19.9021 28.5699 19.5582 28.226 19.5582 27.8017L19.5582 17.815C19.5582 17.3907 19.9021 17.0468 20.3264 17.0468ZM25.7037 15.5106C25.7037 15.0863 25.3598 14.7424 24.9355 14.7424C24.5113 14.7424 24.1673 15.0863 24.1673 15.5106L24.1673 27.8019C24.1673 28.2262 24.5113 28.5701 24.9355 28.5701C25.3598 28.5701 25.7037 28.2262 25.7037 27.8019V15.5106Z" fill="url(#paint2_linear_124_733)"/>
<defs>
<linearGradient id="paint0_linear_124_733" x1="18" y1="0" x2="18" y2="36" gradientUnits="userSpaceOnUse">
<stop stop-color="#284A90"/>
<stop offset="1" stop-color="#284A90" stop-opacity="0.4"/>
</linearGradient>
<linearGradient id="paint1_linear_124_733" x1="18" y1="0" x2="18" y2="36" gradientUnits="userSpaceOnUse">
<stop stop-color="#749FF6"/>
<stop offset="0.430493" stop-color="#153984"/>
</linearGradient>
<linearGradient id="paint2_linear_124_733" x1="17.6404" y1="7.38352" x2="17.6404" y2="29.0183" gradientUnits="userSpaceOnUse">
<stop stop-color="#8096CB"/>
<stop offset="1" stop-color="#8096CB" stop-opacity="0.5"/>
</linearGradient>
</defs>
</svg>
