<svg width="16" height="16" fill="none" xmlns="http://www.w3.org/2000/svg"><g clip-path="url(#clip0_124_336)"><path fill-rule="evenodd" clip-rule="evenodd" d="M0 7.85C0 3.598 3.648.152 7.98.152c4.328 0 7.845 3.582 7.845 7.833 0 4.25-3.514 7.83-7.847 7.83L0 15.821V7.85zm5.66-4.093a4.937 4.937 0 0 1 2.402-.624h.004c.725 0 1.441.16 2.096.467a4.85 4.85 0 0 1 1.686 1.307c.455.554.779 1.2.947 1.892.168.693.176 1.413.023 2.109a4.731 4.731 0 0 1-.905 1.912 4.843 4.843 0 0 1-1.656 1.343 4.938 4.938 0 0 1-4.19.091l-3.16.7.88-2.777a4.7 4.7 0 0 1 .098-4.713 4.823 4.823 0 0 1 1.774-1.707z" fill="#BDC4D1"/></g><defs><clipPath id="clip0_124_336"><path fill="#fff" d="M0 0H16V16H0z"/></clipPath></defs></svg>