<svg fill="none" height="75" width="195" xmlns="http://www.w3.org/2000/svg" xmlns:xlink="http://www.w3.org/1999/xlink"><filter id="a" color-interpolation-filters="sRGB" filterUnits="userSpaceOnUse" height="74.207" width="186.682" x="8.178" y=".356"><feFlood flood-opacity="0" result="BackgroundImageFix"/><feColorMatrix in="SourceAlpha" result="hardAlpha" values="0 0 0 0 0 0 0 0 0 0 0 0 0 0 0 0 0 0 127 0"/><feOffset/><feGaussianBlur stdDeviation="12.014"/><feComposite in2="hardAlpha" operator="out"/><feColorMatrix values="0 0 0 0 1 0 0 0 0 1 0 0 0 0 1 0 0 0 0.2 0"/><feBlend in2="BackgroundImageFix" result="effect1_dropShadow_124_1096"/><feBlend in="SourceGraphic" in2="effect1_dropShadow_124_1096" result="shape"/></filter><g fill="#fff"><path d="m34.726 11.333c0 2.56-2.052 4.647-4.568 4.647-2.517 0-4.569-2.087-4.569-4.647s2.052-4.648 4.569-4.648c2.516 0 4.568 2.088 4.568 4.648zm-24.002 14.612a3.886 3.886 0 0 0 1.2-.906 4.846 4.846 0 0 0 1.355-3.072c.038-.552-.078-1.024-.116-1.576a5.073 5.073 0 0 1 .193-1.693c.658-2.285 2.942-3.702 5.226-3.309 2.168.355 4.375-.866 5.15-2.953.735-1.93.115-4.215-1.51-5.475-1.588-1.26-3.872-1.26-5.537-.079a4.955 4.955 0 0 0 -1.819 2.757 4.763 4.763 0 0 0 -.077 1.655c.077.511.116 1.024.077 1.575-.271 2.363-2.284 4.175-4.607 4.214-.503 0-1.006-.118-1.548-.157-.542 0-1.084.078-1.626.275-1.046.355-1.936 1.142-2.478 2.088-1.007 1.772-.736 4.096.658 5.592a4.568 4.568 0 0 0 5.459 1.064zm6.93-8.114c-.427.237-.852.512-1.2.867a4.618 4.618 0 0 0 -1.317 3.032c-.039.512.077 1.024.116 1.536a4.844 4.844 0 0 1 -.194 1.655c-.658 2.205-2.903 3.623-5.11 3.23a4.561 4.561 0 0 0 -5.032 2.914c-.736 1.89-.116 4.096 1.51 5.356a4.526 4.526 0 0 0 5.42.079c.89-.67 1.548-1.615 1.78-2.718a4.541 4.541 0 0 0 .078-1.615c-.078-.512-.117-1.024-.078-1.536.232-2.323 2.207-4.096 4.49-4.096.504 0 1.007.119 1.51.158a4.35 4.35 0 0 0 1.588-.276 4.642 4.642 0 0 0 2.439-2.048c1.006-1.733.735-4.017-.62-5.514-1.393-1.496-3.6-1.93-5.38-1.024z"/><path d="m32.205 24.585h5.969c2.076 0 3.864.433 5.392 1.269s2.71 2.018 3.517 3.518c.808 1.528 1.24 3.287 1.24 5.305s-.432 3.777-1.24 5.305c-.807 1.528-1.99 2.71-3.517 3.547-1.528.836-3.316 1.24-5.392 1.24h-5.969zm5.969 17.877c2.393 0 4.267-.692 5.594-2.105 1.326-1.384 1.99-3.287 1.99-5.68s-.664-4.296-1.99-5.68c-1.327-1.384-3.172-2.105-5.594-2.105h-3.46v15.57zm13.031-8.996a6.4 6.4 0 0 1 2.48-2.624c1.038-.634 2.249-.951 3.633-.951 1.326 0 2.537.288 3.575.836 1.038.576 1.845 1.384 2.45 2.422.577 1.067.895 2.306.952 3.72 0 .23-.029.547-.057 1.008h-11.418v.202c.029 1.442.461 2.595 1.326 3.46.836.865 1.932 1.298 3.316 1.298 1.038 0 1.932-.26 2.681-.779.75-.519 1.24-1.268 1.5-2.22h2.393c-.288 1.5-1.01 2.74-2.163 3.69-1.153.952-2.566 1.414-4.238 1.414-1.47 0-2.74-.289-3.835-.923-1.096-.634-1.96-1.5-2.566-2.653s-.894-2.45-.894-3.95.288-2.797.865-3.95zm10.64 2.45c-.116-1.24-.606-2.22-1.413-2.911-.808-.692-1.846-1.038-3.086-1.038a4.376 4.376 0 0 0 -2.94 1.095c-.865.75-1.327 1.701-1.442 2.855h8.88zm2.826-5.852h2.538l4.44 12.023 4.412-12.023h2.48l-5.508 14.705h-2.855zm32.963 9.89c-.808 1.556-1.96 2.796-3.403 3.661-1.47.894-3.142 1.327-4.988 1.327-1.874 0-3.546-.433-4.988-1.327-1.47-.865-2.624-2.105-3.431-3.662s-1.211-3.315-1.211-5.276c0-1.96.404-3.72 1.211-5.277a9.13 9.13 0 0 1 3.431-3.661c1.442-.865 3.114-1.327 4.988-1.327 1.846 0 3.518.462 4.989 1.327a9.262 9.262 0 0 1 3.402 3.661c.807 1.557 1.24 3.316 1.24 5.277 0 1.96-.433 3.72-1.24 5.276zm-14.561-1.154a6.76 6.76 0 0 0 2.48 2.826c1.067.692 2.306 1.009 3.69 1.009s2.595-.317 3.662-1.01a7.03 7.03 0 0 0 2.509-2.825c.576-1.21.894-2.566.894-4.123 0-1.528-.318-2.883-.894-4.094a7.03 7.03 0 0 0 -2.509-2.826c-1.067-.692-2.278-1.038-3.662-1.038s-2.623.346-3.69 1.038a6.761 6.761 0 0 0 -2.48 2.826c-.605 1.21-.894 2.566-.894 4.094 0 1.557.288 2.912.894 4.123zm29.38-8.016c1.067.606 1.903 1.47 2.508 2.595.606 1.154.923 2.48.923 4.037 0 1.5-.317 2.797-.923 3.921a6.546 6.546 0 0 1 -2.508 2.653c-1.096.634-2.307.952-3.633.952-1.211 0-2.22-.202-3.056-.635-.865-.432-1.529-1.038-1.99-1.787v8.015h-2.364v-20.471h2.047l.317 2.364c1.211-1.672 2.912-2.537 5.046-2.537 1.355 0 2.566.317 3.633.893zm-.346 10.553c.894-1.009 1.355-2.306 1.355-3.92 0-1.587-.461-2.884-1.355-3.893-.894-1.01-2.076-1.529-3.518-1.529-.951 0-1.787.231-2.537.692-.75.462-1.298 1.096-1.701 1.903-.404.808-.606 1.73-.606 2.768 0 1.067.202 2.019.606 2.855.403.836.951 1.47 1.701 1.932.75.461 1.586.692 2.537.692 1.442 0 2.624-.49 3.518-1.5zm7.002-9.11h-2.653v-2.163h2.653v-4.124h2.364v4.124h3.72v2.162h-3.72v8.679c0 .634.116 1.067.346 1.326.231.26.663.375 1.269.375h2.566v2.163h-2.71c-1.384 0-2.393-.289-2.97-.923-.577-.606-.865-1.586-.865-2.912v-8.708zm10.217-7.411c.288.288.432.663.432 1.096 0 .46-.144.807-.432 1.095-.289.289-.664.433-1.096.433-.461 0-.807-.144-1.096-.433-.288-.288-.432-.634-.432-1.095 0-.433.144-.808.432-1.096.289-.288.635-.433 1.096-.433.432 0 .807.145 1.096.433zm-2.278 5.248h2.364v14.705h-2.364zm25.729 1.384c1.038 1.038 1.557 2.652 1.557 4.844v8.477h-2.365v-8.333c0-1.413-.317-2.509-.922-3.258-.606-.75-1.471-1.125-2.566-1.125-1.24 0-2.221.433-2.913 1.298s-1.038 2.047-1.038 3.546v7.872h-2.364v-8.333c0-1.413-.317-2.509-.923-3.258-.634-.75-1.499-1.125-2.623-1.125-1.211 0-2.163.461-2.855 1.384s-1.038 2.105-1.038 3.575v7.757h-2.364v-14.705h2.047l.317 2.018c1.038-1.442 2.48-2.191 4.296-2.191 1.038 0 1.99.26 2.797.72a4.338 4.338 0 0 1 1.845 2.076c1.038-1.845 2.74-2.796 5.104-2.796 1.643 0 2.97.519 4.008 1.557zm18.055 11.158v2.163h-1.298c-.951 0-1.614-.173-2.018-.577-.404-.375-.634-.952-.634-1.701-1.154 1.643-2.797 2.45-4.931 2.45-1.643 0-2.97-.374-3.95-1.153-.98-.75-1.471-1.816-1.471-3.143 0-1.47.491-2.595 1.5-3.402 1.009-.778 2.479-1.182 4.411-1.182h4.325v-1.01c0-.95-.346-1.7-.98-2.248-.634-.52-1.528-.808-2.682-.808-1.038 0-1.874.231-2.537.692-.663.462-1.067 1.038-1.211 1.788h-2.364c.173-1.442.807-2.566 1.903-3.373 1.095-.808 2.537-1.211 4.325-1.211 1.874 0 3.316.46 4.354 1.384 1.038.922 1.557 2.22 1.557 3.92v6.344c0 .721.317 1.067.98 1.067zm-4.066-4.556h-4.555c-2.192 0-3.287.837-3.287 2.451 0 .75.288 1.327.865 1.76.576.46 1.355.662 2.335.662 1.442 0 2.566-.375 3.402-1.124.808-.75 1.24-1.76 1.24-3.028v-.72z" filter="url(#a)"/></g></svg>